<?xml version="1.0" encoding="UTF-8" standalone="no"?>
<!-- Created with Inkscape (http://www.inkscape.org/) -->

<svg
   width="124.34018mm"
   height="17.068823mm"
   viewBox="0 0 124.34018 17.068823"
   version="1.1"
   id="svg1"
   inkscape:export-filename="beerfinder.svg"
   inkscape:export-xdpi="44.328388"
   inkscape:export-ydpi="44.328388"
   inkscape:version="1.3 (0e150ed6c4, 2023-07-21)"
   sodipodi:docname="dibujo.svg"
   xmlns:inkscape="http://www.inkscape.org/namespaces/inkscape"
   xmlns:sodipodi="http://sodipodi.sourceforge.net/DTD/sodipodi-0.dtd"
   xmlns="http://www.w3.org/2000/svg"
   xmlns:svg="http://www.w3.org/2000/svg">
  <sodipodi:namedview
     id="namedview1"
     pagecolor="#ffffff"
     bordercolor="#000000"
     borderopacity="0.25"
     inkscape:showpageshadow="2"
     inkscape:pageopacity="0.0"
     inkscape:pagecheckerboard="0"
     inkscape:deskcolor="#d1d1d1"
     inkscape:document-units="mm"
     inkscape:export-bgcolor="#ffffff00"
     inkscape:zoom="0.74029882"
     inkscape:cx="334.99986"
     inkscape:cy="513.98164"
     inkscape:window-width="1904"
     inkscape:window-height="993"
     inkscape:window-x="1913"
     inkscape:window-y="0"
     inkscape:window-maximized="0"
     inkscape:current-layer="layer1" />
  <defs
     id="defs1" />
  <g
     inkscape:label="Capa 1"
     inkscape:groupmode="layer"
     id="layer1"
     transform="translate(-43.632703,-137.60653)">
    <path
       style="font-style:italic;font-weight:bold;font-size:24.3772px;line-height:1.6;font-family:'Segoe UI';-inkscape-font-specification:'Segoe UI, Bold Italic';text-align:center;text-anchor:middle;stroke-width:4.72235"
       d="m 58.475655,141.46309 q 0,0.79749 -0.261865,1.48786 -0.261864,0.69037 -0.785593,1.24981 -0.511826,0.54754 -1.273613,0.94033 -0.761788,0.3928 -1.773537,0.58325 v 0.0476 q 0.809399,0.11903 1.416449,0.44041 0.607049,0.30947 1.011749,0.77369 0.416602,0.46421 0.618952,1.04745 0.20235,0.58325 0.20235,1.24981 0,1.15459 -0.452312,2.14253 -0.452311,0.97604 -1.356933,1.70212 -0.904623,0.72608 -2.261557,1.14268 -1.345031,0.4047 -3.154276,0.4047 h -6.772767 l 3.630393,-17.0688 h 6.046688 q 1.392643,0 2.368683,0.29757 0.987944,0.28567 1.606896,0.8094 0.618952,0.51183 0.904622,1.226 0.285671,0.70228 0.285671,1.52358 z m -4.046996,0.74988 q 0,-0.4166 -0.130932,-0.73798 -0.11903,-0.33328 -0.392797,-0.55944 -0.273767,-0.22615 -0.714176,-0.34518 -0.440408,-0.13093 -1.071263,-0.13093 h -1.58309 l -0.880817,4.04699 h 1.809245 q 0.69037,0 1.237905,-0.15474 0.547535,-0.16664 0.928429,-0.46421 0.392796,-0.29757 0.595146,-0.71418 0.20235,-0.4285 0.20235,-0.94033 z m -0.868914,7.09415 q 0,-0.89272 -0.618952,-1.42835 -0.618953,-0.53564 -1.844954,-0.53564 h -2.023498 l -0.976041,4.49931 h 2.142528 q 0.880816,0 1.511672,-0.19045 0.630855,-0.20235 1.023652,-0.54753 0.404699,-0.34518 0.595146,-0.7975 0.190447,-0.46421 0.190447,-0.99984 z"
       id="text2"
       aria-label="B" />
    <path
       style="font-style:italic;font-weight:bold;font-size:24.3772px;line-height:1.6;font-family:'Segoe UI';-inkscape-font-specification:'Segoe UI, Bold Italic';text-align:center;text-anchor:middle;stroke-width:4.72235"
       d="m 81.166335,140.73701 h -5.963368 l -0.809399,3.84464 h 5.558668 l -0.678467,3.14238 h -5.534862 l -0.833205,3.83274 h 6.368067 l -0.666564,3.11857 H 68.370686 l 3.630393,-17.0688 h 9.83182 z"
       id="text3"
       aria-label="E" />
    <path
       style="font-style:italic;font-weight:bold;font-size:24.3772px;line-height:1.6;font-family:'Segoe UI';-inkscape-font-specification:'Segoe UI, Bold Italic';text-align:center;text-anchor:middle;stroke-width:4.72235"
       d="m 70.151343,140.73701 h -5.963367 l -0.8094,3.84464 h 5.558668 l -0.678467,3.14238 h -5.534862 l -0.833205,3.83274 h 6.368067 l -0.666564,3.11857 H 57.355694 l 3.630394,-17.0688 h 9.831819 z"
       id="text4"
       aria-label="E" />
    <path
       style="font-style:italic;font-weight:bold;font-size:24.3772px;line-height:1.6;font-family:'Segoe UI';-inkscape-font-specification:'Segoe UI, Bold Italic';text-align:center;text-anchor:middle;stroke-width:4.72235"
       d="m 94.348926,141.95111 q 0,1.08316 -0.392797,1.96398 -0.392796,0.86891 -1.071263,1.51167 -0.678467,0.64276 -1.594993,1.04746 -0.904623,0.4047 -1.940177,0.54754 v 0.0476 q 0.737981,0.23806 1.26171,0.90462 0.523729,0.66656 0.785593,1.77354 l 1.190293,4.92781 h -4.118413 l -0.928429,-4.39218 q -0.214252,-1.05936 -0.749884,-1.59499 -0.535632,-0.54754 -1.46406,-0.54754 h -0.654662 l -1.392642,6.53471 h -3.880355 l 3.630393,-17.0688 h 5.832435 q 1.487867,0 2.535324,0.35709 1.047458,0.34518 1.702119,0.95223 0.654661,0.59515 0.952235,1.38074 0.297573,0.78559 0.297573,1.65451 z m -4.094608,0.63085 q 0,-0.98794 -0.583243,-1.53548 -0.583244,-0.55943 -1.761634,-0.55943 h -1.606895 l -1.023652,4.74927 h 1.559284 q 0.880816,0 1.523574,-0.21426 0.642759,-0.22615 1.059361,-0.58324 0.416603,-0.36899 0.618952,-0.84511 0.214253,-0.48802 0.214253,-1.01175 z"
       id="text5"
       aria-label="R" />
    <path
       style="font-style:italic;font-weight:bold;font-size:24.3772px;line-height:1.6;font-family:'Segoe UI';-inkscape-font-specification:'Segoe UI, Bold Italic';text-align:center;text-anchor:middle;stroke-width:4.72235"
       d="m 106.46157,140.78462 h -6.01098 l -0.880818,4.11841 h 5.534858 l -0.69037,3.16618 h -5.522955 l -1.392642,6.60613 h -3.880355 l 3.630393,-17.0688 h 9.879429 z"
       id="text6"
       aria-label="F" />
    <path
       style="font-style:italic;font-weight:bold;font-size:24.3772px;line-height:1.6;font-family:'Segoe UI';-inkscape-font-specification:'Segoe UI, Bold Italic';text-align:center;text-anchor:middle;stroke-width:4.72235"
       d="m 108.15256,154.67534 h -3.88036 l 3.60659,-17.0688 h 3.88036 z"
       id="text7"
       aria-label="I" />
    <path
       style="font-style:italic;font-weight:bold;font-size:24.3772px;line-height:1.6;font-family:'Segoe UI';-inkscape-font-specification:'Segoe UI, Bold Italic';text-align:center;text-anchor:middle;stroke-width:4.72235"
       d="m 124.76582,154.67534 h -3.51136 l -5.34442,-10.84357 q -0.0714,-0.14283 -0.15474,-0.33328 -0.0833,-0.19045 -0.16664,-0.3809 -0.0833,-0.20235 -0.15474,-0.38089 -0.0714,-0.17854 -0.10712,-0.32138 h -0.0714 q -0.0595,0.44041 -0.13093,0.98794 -0.0714,0.54754 -0.20235,1.08317 l -2.17824,10.18891 h -3.60659 l 3.60659,-17.0688 h 3.80894 l 5.11826,10.43887 q 0.0595,0.13093 0.14283,0.32138 0.0952,0.17854 0.17855,0.38089 0.0952,0.19045 0.16664,0.38089 0.0833,0.19045 0.11903,0.33329 h 0.0476 q 0.0119,-0.17855 0.0357,-0.3928 0.0238,-0.22616 0.0595,-0.45231 0.0357,-0.22616 0.0714,-0.44041 0.0476,-0.21425 0.0833,-0.38089 l 2.16633,-10.18891 h 3.6304 z"
       id="text8"
       aria-label="N" />
    <path
       style="font-style:italic;font-weight:bold;font-size:24.3772px;line-height:1.6;font-family:'Segoe UI';-inkscape-font-specification:'Segoe UI, Bold Italic';text-align:center;text-anchor:middle;stroke-width:4.72235"
       d="m 143.04282,144.51024 q 0,1.34503 -0.27377,2.63054 -0.27377,1.27362 -0.8332,2.4044 -0.54754,1.13077 -1.39265,2.07111 -0.8451,0.94033 -1.99969,1.61879 -1.14268,0.67847 -2.60674,1.05937 -1.46406,0.38089 -3.2495,0.38089 h -6.9037 l 3.6304,-17.0688 h 5.99907 q 1.88066,0 3.29711,0.51182 1.42835,0.51183 2.39249,1.42836 0.96414,0.90462 1.45216,2.17823 0.48802,1.26171 0.48802,2.78529 z m -4.0708,0.29757 q 0,-0.95223 -0.27377,-1.70212 -0.26186,-0.76179 -0.8213,-1.28551 -0.54754,-0.52373 -1.39264,-0.7975 -0.84511,-0.28567 -1.9997,-0.28567 h -1.86876 l -2.29726,10.81976 h 2.34488 q 1.45215,0 2.61864,-0.47612 1.16649,-0.48802 1.98779,-1.36883 0.8213,-0.89272 1.26171,-2.13063 0.44041,-1.2498 0.44041,-2.77338 z"
       id="text9"
       aria-label="D" />
    <path
       style="font-style:italic;font-weight:bold;font-size:24.3772px;line-height:1.6;font-family:'Segoe UI';-inkscape-font-specification:'Segoe UI, Bold Italic';text-align:center;text-anchor:middle;stroke-width:4.72235"
       d="m 154.8741,140.73701 h -5.96337 l -0.8094,3.84464 H 153.66 l -0.67847,3.14238 h -5.53486 l -0.8332,3.83274 h 6.36806 l -0.66656,3.11857 h -10.23652 l 3.63039,-17.0688 h 9.83182 z"
       id="text10"
       aria-label="E" />
    <path
       style="font-style:italic;font-weight:bold;font-size:24.3772px;line-height:1.6;font-family:'Segoe UI';-inkscape-font-specification:'Segoe UI, Bold Italic';text-align:center;text-anchor:middle;stroke-width:4.72235"
       d="m 167.97288,141.95111 q 0,1.08316 -0.3928,1.96398 -0.39279,0.86891 -1.07126,1.51167 -0.67847,0.64276 -1.59499,1.04746 -0.90462,0.4047 -1.94018,0.54754 v 0.0476 q 0.73798,0.23806 1.26171,0.90462 0.52373,0.66656 0.78559,1.77354 l 1.1903,4.92781 h -4.11842 l -0.92842,-4.39218 q -0.21426,-1.05936 -0.74989,-1.59499 -0.53563,-0.54754 -1.46406,-0.54754 h -0.65466 l -1.39264,6.53471 h -3.88036 l 3.63039,-17.0688 h 5.83244 q 1.48787,0 2.53532,0.35709 1.04746,0.34518 1.70212,0.95223 0.65466,0.59515 0.95224,1.38074 0.29757,0.78559 0.29757,1.65451 z m -4.09461,0.63085 q 0,-0.98794 -0.58324,-1.53548 -0.58324,-0.55943 -1.76163,-0.55943 h -1.6069 l -1.02365,4.74927 h 1.55928 q 0.88082,0 1.52358,-0.21426 0.64276,-0.22615 1.05936,-0.58324 0.4166,-0.36899 0.61895,-0.84511 0.21425,-0.48802 0.21425,-1.01175 z"
       id="text11"
       aria-label="R" />
  </g>
</svg>
